<svg id="Calque_1" data-name="Calque 1" xmlns="http://www.w3.org/2000/svg" viewBox="0 0 800 800"><defs><style>.cls-1{fill:#fff;}.cls-2{stroke:#fff;stroke-miterlimit:10;stroke-width:9px;}</style></defs><rect x="280.5" y="425" width="33" height="210" rx="12"/><rect x="332.5" y="403" width="33" height="162" rx="12"/><rect x="382.5" y="464" width="33" height="210" rx="12"/><rect x="429.5" y="431" width="33" height="210" rx="12"/><rect x="480.5" y="350" width="33" height="210" rx="12"/><circle cx="497" cy="586.5" r="17.5"/><circle cx="398.5" cy="321" r="195"/><path class="cls-1" d="M418.45,395.89A7.6,7.6,0,0,1,405.73,398,210.14,210.14,0,0,0,234.54,327.5,7.59,7.59,0,0,1,227.07,317h0a7.59,7.59,0,0,1,4.67-4.33c15.46-5.06,63.27-17.62,114.51,6.48,43.72,20.56,64.62,55.89,72,70.4a7.67,7.67,0,0,1,.24,6.34Z"/><path class="cls-1" d="M510.26,427c-1.24,9.86-34,18.73-61.79,10.07s-49.73-34.47-45.14-43.39c5.88-11.42,55.55,4.66,59.9,6.09C472,402.67,511.69,415.74,510.26,427Z"/><path d="M429.35,403.63a32.85,32.85,0,0,0,6,15.23c5.55,7.58,12.86,10.38,17.22,12.06a46.36,46.36,0,0,0,25,2.22,47.05,47.05,0,0,0,16.3-6.35,198,198,0,0,1-64.53-23.16Z"/><path class="cls-2" d="M373.67,219.77A150.7,150.7,0,0,1,475.2,305.08"/><path class="cls-1" d="M351.43,202.5l39.39-4.94a8.37,8.37,0,0,1,8.75,11.55L384.15,245.7a8.37,8.37,0,0,1-14.38,1.8l-24-31.64A8.37,8.37,0,0,1,351.43,202.5Z"/><path class="cls-1" d="M472.83,297.28,521.12,328a1.61,1.61,0,0,1-1.18,2.93l-33.54-6.81a1.61,1.61,0,0,0-1.79.93L471,356.46a1.61,1.61,0,0,1-3.08-.71l2.46-57.19A1.61,1.61,0,0,1,472.83,297.28Z"/><path class="cls-1" d="M413.05,238.05a28.17,28.17,0,0,1,34.56-11.62.34.34,0,0,0,.29-.62l0,0c-14.1-8.64-32.05-5.55-40.38,7.16-8.8,13.42-6.07,30.45,8.71,39.5.4.24,1.39.74,2.31,1.2a.22.22,0,0,0,.24-.36C407.9,263.81,405.84,249.82,413.05,238.05Z"/><path class="cls-1" d="M436.74,251.73c10.13-10.66,25.12-13.8,36.5-6.85.36.21.76-.3.46-.58l0,0c-11.13-10.59-29.27-10-40.84,1.59-12.23,12.21-14.38,29.61-2.7,40.7.31.3,1.12.94,1.88,1.53.2.16.48-.12.33-.33C424.56,276.79,426.51,262.51,436.74,251.73Z"/><path class="cls-1" d="M454.25,270.09c9.22-7,22.78-5.5,33,4.36.32.3.68-.05.41-.41l0,0c-10-13.18-26.36-17.95-36.89-10.56-11.12,7.81-13.18,23.45-2.72,37.26.28.37,1,1.21,1.69,2,.18.21.43,0,.3-.21C443.08,289.92,444.94,277.15,454.25,270.09Z"/><circle cx="383.62" cy="208.8" r="7.12"/><path class="cls-1" d="M377.26,208.26a6.43,6.43,0,0,0,11.94-2.07,5.79,5.79,0,0,1-4,7.15,6.39,6.39,0,0,1-5.68-.86A6.14,6.14,0,0,1,377.26,208.26Z"/><path d="M353.08,225.47a29.71,29.71,0,0,0,25.62,0,17,17,0,0,1-16.18,6.65,10.13,10.13,0,0,1-7.61-3.17A9,9,0,0,1,353.08,225.47Z"/><path d="M377.17,222.2a4.62,4.62,0,0,1,.39,4.11,7.62,7.62,0,0,1,2,.3,8.12,8.12,0,0,1,2.82,1.43,20.06,20.06,0,0,0-5.19-5.84Z"/><path d="M471.51,345.31l1.64-35.81c0-.51.5-.78.78-.45l7.85,9.08a.69.69,0,0,1,.1.68l-9.48,26.73C472.19,346.15,471.48,346,471.51,345.31Z"/><path class="cls-1" d="M500.5,395c.58-3.22,3.91-20,19-29a37.91,37.91,0,0,1,15-5,34.32,34.32,0,0,1,23.7,4,9.51,9.51,0,0,1,2.3,16,24.32,24.32,0,0,1-9,5c-10,2.93-16.79-2.72-26-3C519.72,382.83,511.22,384.71,500.5,395Z"/><path d="M524.77,378c-2.29,1.4-3.89.63-6.93,1.28-2.42.52-5.76,1.95-9.34,6.13.38-2,2.55-12.37,12.37-17.91a27.63,27.63,0,0,1,9.76-3.09c3.31-.56,8.22-.94,8.47,0s-5.63,1.55-9.6,6.62C527,374.16,527.47,376.32,524.77,378Z"/></svg>